# xmcd
#
# Track frame offsets: 
#        150
#        4911
#        24323
#        44457
#        62964
#        81473
#        101362
#        120141
#        137532
#        155099
#
# Disc length: 2336 seconds
#
# Revision: 0
# Processed by: cddbd v1.5.2PL0 Copyright (c) Steve Scherf et al.
# Submitted via: ExactAudioCopyFreeDBPlugin 1.0
#
DISCID=79091e0a
DTITLE=RAN - Hari Baru
DYEAR=2013
DGENRE=R&B
TTITLE0=Awake
TTITLE1=Hari Baru
TTITLE2=Curiga
TTITLE3=Begitu Saja
TTITLE4=Fly Away
TTITLE5=Nirwana
TTITLE6=RAN feat. Tulus - Kita Bisa
TTITLE7=Yes and No
TTITLE8=;)
TTITLE9=Dekat Di Hati
EXTD=
EXTT0=
EXTT1=
EXTT2=
EXTT3=
EXTT4=
EXTT5=
EXTT6=
EXTT7=
EXTT8=
EXTT9=
PLAYORDER=
